<svg id="Layer_1" viewBox="0 0 24 24" xmlns="http://www.w3.org/2000/svg" data-name="Layer 1"><path d="m23.375 8.577c-.269-.482-.875-.657-1.36-.39-.482.269-.657.877-.39 1.36.245.441.375.943.375 1.452v5c0 1.654-1.346 3-3 3v-2c0-1.654-1.346-3-3-3h-8c-1.654 0-3 1.346-3 3v2c-1.654 0-3-1.346-3-3v-5c0-1.654 1.346-3 3-3h6c.553 0 1-.447 1-1s-.447-1-1-1h-4v-2c0-1.103.897-2 2-2 .553 0 1-.447 1-1s-.447-1-1-1c-2.206 0-4 1.794-4 4v2c-2.757.001-5 2.244-5 5.001v5c0 2.757 2.243 5 5 5 0 1.654 1.346 3 3 3h8c1.654 0 3-1.346 3-3 2.757 0 5-2.243 5-5v-5c0-.847-.216-1.685-.625-2.423zm-6.375 12.423c0 .552-.448 1-1 1h-8c-.552 0-1-.448-1-1v-4c0-.552.448-1 1-1h8c.552 0 1 .448 1 1zm2.374-14.343c-1.086-.871-2.662-.871-3.748 0-.432.346-1.06.276-1.406-.154-.346-.431-.276-1.061.154-1.406 1.812-1.453 4.439-1.453 6.252 0 .431.346.5.976.154 1.406-.348.433-.977.498-1.406.154zm-8.1-2.779c-.38-.4-.363-1.033.038-1.413 3.469-3.289 8.906-3.289 12.375 0 .401.38.418 1.013.038 1.413-.38.402-1.013.418-1.413.038-2.699-2.557-6.926-2.557-9.625 0-.4.381-1.033.364-1.413-.038zm6.225 4.122c.828 0 1.5.672 1.5 1.5s-.672 1.5-1.5 1.5-1.5-.672-1.5-1.5.672-1.5 1.5-1.5z"/></svg>